<svg width="137" height="128" viewBox="0 0 137 128" fill="none" xmlns="http://www.w3.org/2000/svg">
<ellipse cx="68.2397" cy="63.8605" rx="68.2397" ry="63.8605" transform="translate(0.353027 0.275391)" fill="#333333"/>
<path fill-rule="evenodd" clip-rule="evenodd" d="M41.2159 24.7684L19.8604 3.41265C15.3214 -1.12641 7.94036 -1.14379 3.39859 3.39805C-1.13394 7.93064 -1.13665 15.3102 3.41319 19.8601L24.7687 41.2159L3.41319 62.5717C-1.13665 67.1216 -1.13394 74.5011 3.39859 79.0337C7.94036 83.5755 15.3214 83.5582 19.8604 79.0191L41.2159 57.6633L62.5714 79.0191C67.1103 83.5582 74.4914 83.5755 79.0332 79.0337C83.5657 74.5011 83.5684 67.1216 79.0186 62.5717L57.6631 41.2159L79.0186 19.8601C83.5684 15.3102 83.5657 7.93064 79.0332 3.39805C74.4914 -1.14379 67.1103 -1.12641 62.5714 3.41265L41.2159 24.7684Z" transform="translate(68.8619 5.8479) rotate(45.2637)" fill="#F2F2F2"/>
</svg>
