<svg width="55" height="83" viewBox="0 0 55 83" fill="none" xmlns="http://www.w3.org/2000/svg">
<path fill-rule="evenodd" clip-rule="evenodd" d="M7.81964 66.4678C7.82069 66.4679 7.82053 66.4667 7.82157 66.4668L58.6472 66.4677C62.966 66.4678 66.4669 62.9668 66.4668 58.6481C66.4668 54.3295 62.9659 50.8285 58.6472 50.8285L15.6412 50.8285L15.6411 7.82015C15.6412 3.48007 12.1403 8.7099e-05 7.82162 0C3.47281 0.000108254 0.00199349 3.50118 0.00201004 7.82016L0.00190473 58.4697C0.00059152 58.5289 -5.3936e-06 58.5886 3.67065e-08 58.6482C0.000119455 59.1897 0.0559909 59.7184 0.160896 60.229C0.291068 60.867 0.498573 61.4763 0.773079 62.0465C1.59669 63.757 3.02372 65.1163 4.77781 65.8552C5.71233 66.2489 6.74114 66.4673 7.81964 66.4678Z" transform="translate(46.4414 -2.89832) scale(1.06043 0.935674) rotate(45)" fill="#333333"/>
</svg>
