<svg width="157" height="72" viewBox="0 0 157 72" fill="none" xmlns="http://www.w3.org/2000/svg">
<path fill-rule="evenodd" clip-rule="evenodd" d="M65.0181 28.2687C64.7813 28.2687 64.5481 28.297 64.3149 28.3041C61.0534 12.1591 46.7883 0 29.6822 0C18.6644 0 8.89405 5.09897 2.41698 13.0036C1.67492 14.1061 1.3675 15.357 1.28623 17.3959L0 49.4703L1.28623 68.9086C1.3569 69.8803 2.20849 70.6718 3.18023 70.6718H65.0181C76.7284 70.6718 86.2196 61.1806 86.2196 49.4703C86.2196 37.76 76.7284 28.2687 65.0181 28.2687Z" transform="translate(69.9039 0.710144)" fill="#333333"/>
<path fill-rule="evenodd" clip-rule="evenodd" d="M4.83295 0C3.86122 0 2.99549 0.791525 2.90715 1.75973L0.044936 33.5762C-0.0434038 34.5444 0.0025329 36.1204 0.14741 37.085L2.80467 54.7883C2.94955 55.753 3.86122 56.5375 4.83295 56.5375H5.53967C6.51141 56.5375 7.42308 55.753 7.56795 54.7883L10.2252 37.085C10.3701 36.1204 10.416 34.5444 10.3277 33.5762L7.46548 1.75973C7.37714 0.791525 6.51141 0 5.53967 0H4.83295Z" transform="translate(55.5314 14.8445)" fill="#333333"/>
<path fill-rule="evenodd" clip-rule="evenodd" d="M4.8252 0C3.85346 0 2.98066 0.791525 2.88172 1.75973L0.0548466 30.0426C-0.044094 31.0108 -0.00522446 32.5868 0.139653 33.5515L2.79691 51.2547C2.94179 52.2194 3.85346 53.0039 4.8252 53.0039H5.53191C6.50365 53.0039 7.41532 52.2194 7.5602 51.2547L10.2175 33.5515C10.3623 32.5868 10.4012 31.0108 10.3023 30.0426L7.47539 1.75973C7.37645 0.791525 6.50365 0 5.53191 0H4.8252Z" transform="translate(41.4039 18.3781)" fill="#333333"/>
<path fill-rule="evenodd" clip-rule="evenodd" d="M5.12989 0C4.15815 0 3.23235 0.784457 3.07334 1.74206L0.119259 19.4595C-0.0397529 20.4171 -0.0397529 21.986 0.119259 22.9436L3.07334 40.661C3.23235 41.6186 4.15815 42.4031 5.12989 42.4031C6.10163 42.4031 7.02743 41.6186 7.18644 40.661L10.1405 22.9436C10.2995 21.986 10.2995 20.4171 10.1405 19.4595L7.18644 1.74206C7.02743 0.784457 6.10163 0 5.12989 0Z" transform="translate(27.3177 28.9789)" fill="#333333"/>
<path fill-rule="evenodd" clip-rule="evenodd" d="M5.14238 0C4.17065 0 3.26251 0.787991 3.1247 1.74913L0.0928815 22.986C-0.0449286 23.9472 -0.0272607 25.5196 0.131751 26.4772L3.08583 44.1946C3.24485 45.1522 4.17065 45.9367 5.14238 45.9367C6.11412 45.9367 7.03992 45.1522 7.19893 44.1946L10.153 26.4772C10.312 25.5196 10.3297 23.9472 10.1919 22.986L7.16006 1.74913C7.02225 0.787991 6.11412 0 5.14238 0Z" transform="translate(13.1714 25.4453)" fill="#333333"/>
<path fill-rule="evenodd" clip-rule="evenodd" d="M4.41345 0C3.44171 0 2.49117 0.780924 2.30036 1.73146L0.166069 12.4029C-0.0247454 13.3534 -0.0565477 14.9188 0.0989304 15.88L2.3675 30.0567C2.51944 31.0179 3.44171 31.8023 4.41345 31.8023C5.38518 31.8023 6.30392 31.0179 6.4594 30.0567L8.72796 15.88C8.88344 14.9188 8.85164 13.3534 8.66082 12.4029L6.52653 1.73146C6.33572 0.780924 5.38518 0 4.41345 0Z" transform="translate(0.826172 36.046)" fill="#333333"/>
</svg>
