<svg width="129" height="113" viewBox="0 0 129 113" fill="none" xmlns="http://www.w3.org/2000/svg">
<path fill-rule="evenodd" clip-rule="evenodd" d="M0 8C0 3.58172 3.58172 0 8 0H120.083C124.502 0 128.083 3.58172 128.083 8V104.093C128.083 108.511 124.502 112.093 120.083 112.093H8C3.58172 112.093 0 108.511 0 104.093V8Z" transform="translate(0.55127 0.755127)" fill="#333333"/>
<path fill-rule="evenodd" clip-rule="evenodd" d="M31.0298 21.5837V17.3003H16.7898V21.7741H25.7379V22.5118C25.6898 27.6043 21.793 31.0311 16.1162 31.0311C9.59758 31.0311 5.50839 26.0337 5.50839 17.9428C5.50839 9.99467 9.57353 4.97354 15.996 4.97354C20.7346 4.97354 24.03 7.23424 25.3771 11.3749H30.7892C29.6106 4.42621 23.8857 0 15.996 0C6.27812 0 0 7.04386 0 17.9904C0 29.0797 6.20596 36.0046 16.0441 36.0046C25.1365 36.0046 31.0298 30.3648 31.0298 21.5837ZM43.8264 35.1729V0.834106H38.4382V35.1729H43.8264ZM57.8981 35.1729V20.9424H72.8117V16.2307H57.8981V5.68866H74.1828V0.834106H52.51V35.1729H57.8981Z" transform="translate(27.6581 38.6863)" fill="white"/>
</svg>
