<svg width="73" height="67" viewBox="0 0 73 67" fill="none" xmlns="http://www.w3.org/2000/svg">
<path fill-rule="evenodd" clip-rule="evenodd" d="M49.8038 32.2896C49.8038 27.7903 46.2022 25.4082 41.1494 25.4082H26.6323C27.6438 21.5271 28.1549 17.9742 28.1549 14.8215C28.1549 2.57258 24.6225 0 21.6576 0C19.6066 0 18.2032 0.209618 16.2237 1.35299C15.6823 1.66636 15.3076 2.19146 15.195 2.79702L13.0617 14.2646C10.7725 20.2948 4.81448 25.4866 0 29.1284V59.3261C1.65897 59.3261 3.54102 60.2366 5.53568 61.2021C7.88986 62.3412 10.322 63.5206 12.9946 63.5206H33.5693C37.8965 63.5206 41.1299 60.1667 41.1299 57.1685C41.1299 56.5905 41.0671 56.0633 40.9654 55.5869C43.6422 54.6171 45.4723 52.4003 45.4723 49.7578C45.4723 48.498 45.2449 47.4054 44.7749 46.4441C46.4122 45.3135 48.0712 43.465 48.0712 41.2884C48.0712 40.1027 47.5103 38.6862 46.6851 37.7207C48.5693 36.3401 49.8038 34.3011 49.8038 32.2896ZM45.2651 32.2896C45.2651 34.9701 42.3543 35.2877 41.997 36.5899C41.6007 38.0233 43.7491 38.5971 43.7491 41.1126C43.7491 43.7593 40.481 43.7275 40.0326 45.0932C39.5042 46.713 41.1069 47.1555 41.1069 49.7577C41.1069 49.9208 41.0895 50.0774 41.0354 50.232C40.5893 52.4086 37.2778 52.4679 36.7082 53.3636C36.0996 54.3227 36.7948 54.9198 36.7948 57.1685C36.7948 58.4029 35.3741 59.2858 33.57 59.2858H12.9953C11.3363 59.2858 9.45429 58.3732 7.45962 57.4077C5.75733 56.5841 4.01173 55.7392 2.1665 55.3348V32.8528C7.53759 28.8319 14.5048 22.8567 17.199 15.5392C17.238 15.4291 17.2705 15.3147 17.2922 15.2004L19.2673 4.57128C19.9214 4.30026 20.5235 4.23462 21.6583 4.23462C22.137 4.23462 23.8241 6.76909 23.8241 14.8214C23.8241 17.9 23.2632 21.4572 22.1543 25.4082H21.6172C20.4217 25.4082 19.4514 26.3546 19.4514 27.5255C19.4514 28.6964 20.4217 29.6429 21.6172 29.6429H41.1502C43.2813 29.6429 45.2651 30.6359 45.2651 32.2896Z" transform="translate(21.2283 1.95801)" fill="#333333" stroke="#333333" stroke-width="2"/>
<path fill-rule="evenodd" clip-rule="evenodd" d="M17.3261 38.1124H4.33152C1.94269 38.1124 0 36.2131 0 33.8777V4.23471C0 1.89927 1.94269 0 4.33152 0H17.3261C19.7149 0 21.6576 1.89927 21.6576 4.23471V33.8777C21.6576 36.2131 19.7149 38.1124 17.3261 38.1124ZM4.33203 4.23486V33.8778H17.3201L17.3266 4.23486H4.33203Z" transform="translate(1.73718 27.366)" fill="#333333" stroke="#333333" stroke-width="2"/>
</svg>
