<svg width="188" height="188" viewBox="0 0 188 188" fill="none" xmlns="http://www.w3.org/2000/svg">
<path d="M93.5 187C145.139 187 187 145.139 187 93.5C187 41.8614 145.139 0 93.5 0C41.8614 0 0 41.8614 0 93.5C0 145.139 41.8614 187 93.5 187Z" transform="translate(0.500122 0.120117)" fill="white"/>
<path d="M93.5 187C145.139 187 187 145.139 187 93.5C187 41.8614 145.139 0 93.5 0C41.8614 0 0 41.8614 0 93.5C0 145.139 41.8614 187 93.5 187Z" transform="translate(0.500122 0.120117)" stroke="#DADADA"/>
<g filter="url(#filter0_d)">
<path d="M19.7024 29.4229C25.4776 26.0349 32.1574 31.0129 31.8345 37.7007L31.4494 45.6796C31.4005 46.6929 32.2088 47.5412 33.2233 47.5412V47.5412C34.1312 47.5412 34.8929 46.8565 34.9892 45.9537L37.8122 19.4991C38.1177 16.6366 39.1956 13.8796 41.159 11.7743C45.0174 7.63714 48.7532 5.07799 54.6701 1.95984C56.0313 1.24246 57.5067 0.755501 59.0295 0.53448C64.2014 -0.216202 67.6072 -0.244973 72.8831 0.892375C79.8709 2.44084 84.3336 3.27284 91.3638 4.48356C92.8484 4.73924 94.2199 5.44187 95.2924 6.49979V6.49979C96.4667 7.65819 97.2214 9.17782 97.4183 10.8156C97.8943 14.7755 98.1669 17.7645 98.2474 21.2355C98.303 23.6315 99.9405 25.7233 102.282 26.2364V26.2364C103.049 26.4047 103.767 26.7513 104.379 27.2441C106.079 28.6119 107.41 29.6516 108.955 30.823C110.641 32.1018 112.595 32.9779 114.655 33.4659C119.084 34.5155 122.407 35.5007 126.204 37.0658C129.07 38.2472 132.295 40.4215 131.889 43.4949C131.846 43.8277 131.76 44.1596 131.632 44.499C131.119 45.8603 129.964 46.8594 128.808 47.7424C105.856 65.2709 91.7825 73.4631 66.6722 82.9003C65.8222 83.2197 64.9351 83.4614 64.0405 83.6172C49.5554 86.1414 41.0299 87.0162 26.1691 83.3812C14.9508 81.1128 8.83187 79.3926 1.94697 65.7457C-0.612964 59.6312 -0.620256 55.4284 1.75851 48.082C2.24272 46.5866 3.00786 45.1943 3.98118 43.9601C9.01682 37.5746 13.3118 33.1719 19.7024 29.4229Z" transform="translate(26.1166 16.7708)" fill="#333333"/>
</g>
<g filter="url(#filter1_d)">
<path d="M36.133 28.2625C28.3658 28.3631 23.707 26.8605 18.8236 22.7702C16.1693 20.547 7.0308 20.2834 3.57757 20.535C-2.51763 20.979 3.35299 23.8919 5.80505 29.4897C9.30388 37.4773 11.9838 42.7035 13.4796 45.4637C14.3396 47.0507 14.9844 48.7298 15.3225 50.5029C16.9263 58.9138 21.8012 84.2016 22.0464 82.1229C22.303 79.947 26.4495 75.2974 27.4914 74.1591C27.6482 73.9878 27.803 73.8155 27.9541 73.6391L38.5394 61.2793C39.2484 60.4515 40.0454 59.7034 40.9165 59.0483L59.0556 45.4067C60.1999 44.5461 61.2151 43.5262 62.0703 42.3779L67.9672 34.4596C70.0017 31.7277 71.0397 28.3862 70.9611 24.9808C70.8621 20.6929 70.8006 15.3421 71.1102 15.3421C71.6266 15.3421 100.032 17.3969 100.032 16.3695C100.032 15.3421 86.0874 9.17769 89.1863 8.15029C92.2852 7.12289 97.4498 5.5818 100.032 5.5818C102.614 5.5818 94.4222 1.4669 90.2192 0.444812C88.1451 -0.0595569 85.4071 -0.0555702 83.201 0.0724917C80.7177 0.216649 78.4612 1.45308 76.7922 3.29759L75.8591 4.3288C75.1182 5.14764 74.1622 5.74185 73.1 6.04372C71.8119 6.40976 70.687 7.20347 69.9102 8.29417L64.9306 15.2866C63.2341 17.6688 60.8783 19.5031 58.1529 20.5639L40.8447 27.3004C39.3402 27.886 37.7473 28.2416 36.133 28.2625Z" transform="translate(57.4723 90.6138)" fill="#333333"/>
</g>
<defs>
<filter id="filter0_d" x="22.1166" y="16.7708" width="139.924" height="93.8151" filterUnits="userSpaceOnUse" color-interpolation-filters="sRGB">
<feFlood flood-opacity="0" result="BackgroundImageFix"/>
<feColorMatrix in="SourceAlpha" type="matrix" values="0 0 0 0 0 0 0 0 0 0 0 0 0 0 0 0 0 0 255 0"/>
<feOffset dy="4"/>
<feGaussianBlur stdDeviation="2"/>
<feColorMatrix type="matrix" values="0 0 0 0 0 0 0 0 0 0 0 0 0 0 0 0 0 0 0.25 0"/>
<feBlend mode="normal" in2="BackgroundImageFix" result="effect1_dropShadow"/>
<feBlend mode="normal" in="SourceGraphic" in2="effect1_dropShadow" result="shape"/>
</filter>
<filter id="filter1_d" x="54.3703" y="90.6138" width="107.627" height="90.2439" filterUnits="userSpaceOnUse" color-interpolation-filters="sRGB">
<feFlood flood-opacity="0" result="BackgroundImageFix"/>
<feColorMatrix in="SourceAlpha" type="matrix" values="0 0 0 0 0 0 0 0 0 0 0 0 0 0 0 0 0 0 255 0"/>
<feOffset dy="4"/>
<feGaussianBlur stdDeviation="2"/>
<feColorMatrix type="matrix" values="0 0 0 0 0 0 0 0 0 0 0 0 0 0 0 0 0 0 0.25 0"/>
<feBlend mode="normal" in2="BackgroundImageFix" result="effect1_dropShadow"/>
<feBlend mode="normal" in="SourceGraphic" in2="effect1_dropShadow" result="shape"/>
</filter>
</defs>
</svg>
