<svg width="111" height="28" viewBox="0 0 111 28" fill="none" xmlns="http://www.w3.org/2000/svg">
<path fill-rule="evenodd" clip-rule="evenodd" d="M54.8359 26.5872C63.4888 26.5872 70.5034 20.6354 70.5034 13.2936C70.5034 5.95172 63.4888 0 54.8359 0C46.1831 0 39.1685 5.95172 39.1685 13.2936C39.1685 20.6354 46.1831 26.5872 54.8359 26.5872ZM15.6675 26.5873C24.3203 26.5873 31.335 20.6355 31.335 13.2936C31.335 5.95178 24.3203 6.10352e-05 15.6675 6.10352e-05C7.01465 6.10352e-05 0 5.95178 0 13.2936C0 20.6355 7.01465 26.5873 15.6675 26.5873ZM109.673 13.2936C109.673 20.6354 102.658 26.5872 94.0051 26.5872C85.3523 26.5872 78.3376 20.6354 78.3376 13.2936C78.3376 5.95172 85.3523 0 94.0051 0C102.658 0 109.673 5.95172 109.673 13.2936Z" transform="translate(0.604248 0.899719)" fill="#333333"/>
</svg>
