<svg width="147" height="126" viewBox="0 0 147 126" fill="none" xmlns="http://www.w3.org/2000/svg">
<path fill-rule="evenodd" clip-rule="evenodd" d="M72.8979 109.321C72.8979 109.321 38.9587 131.525 28.0519 124.383C17.1452 117.242 30.0897 81.2923 30.0897 81.2923C30.0897 81.2923 -3.70564 58.7187 0.335551 47.5102C4.37674 36.3017 46.441 35.9409 46.441 35.9409C46.441 35.9409 59.6695 0 72.8979 0C86.1264 0 99.3549 35.9409 99.3549 35.9409C99.3549 35.9409 141.329 36.0506 145.46 47.5102C149.592 58.9699 115.706 81.2923 115.706 81.2923C115.706 81.2923 128.446 117.376 117.744 124.383C107.042 131.391 72.8979 109.321 72.8979 109.321Z" transform="translate(0.687866 0.092041)" fill="#333333"/>
</svg>
