<svg width="105" height="128" viewBox="0 0 105 128" fill="none" xmlns="http://www.w3.org/2000/svg">
<path fill-rule="evenodd" clip-rule="evenodd" d="M0 0H7.94995V63.5996H0V0Z" transform="translate(32.544 40.3525)" fill="#333333"/>
<path fill-rule="evenodd" clip-rule="evenodd" d="M0 0H7.94995V63.5996H0V0Z" transform="translate(48.4438 40.3525)" fill="#333333"/>
<path fill-rule="evenodd" clip-rule="evenodd" d="M0 0H7.94995V63.5996H0V0Z" transform="translate(64.3438 40.3525)" fill="#333333"/>
<path fill-rule="evenodd" clip-rule="evenodd" d="M0 0H103.349V7.94995H0V0Z" transform="translate(0.744263 16.5026)" fill="#333333"/>
<path fill-rule="evenodd" clip-rule="evenodd" d="M39.1933 19.5966H31.7998V11.6467C31.7998 9.30145 29.8918 7.39346 27.5466 7.39346H11.6467C9.30145 7.39346 7.39346 9.30145 7.39346 11.6467V19.5966H0V11.6467C0 5.22312 5.2271 0 11.6467 0H27.5466C33.9662 0 39.1933 5.22312 39.1933 11.6467V19.5966Z" transform="translate(32.8217 0.881165)" fill="#333333"/>
<path fill-rule="evenodd" clip-rule="evenodd" d="M67.5627 107.63H19.863C13.4473 107.63 7.83071 102.427 7.34178 96.0315L0 0.612146L7.92611 0L15.2679 95.4233C15.4428 97.693 17.5893 99.6805 19.863 99.6805H67.5627C69.8364 99.6805 71.9829 97.693 72.1578 95.4273L79.4995 0L87.4257 0.612146L80.0839 96.0315C79.5949 102.427 73.9783 107.63 67.5627 107.63Z" transform="translate(8.70612 20.1718)" fill="#333333"/>
</svg>
