<svg width="143" height="144" viewBox="0 0 143 144" fill="none" xmlns="http://www.w3.org/2000/svg">
<path fill-rule="evenodd" clip-rule="evenodd" d="M33.689 67.3781C15.1129 67.3781 0 52.2652 0 33.689C0 15.1129 15.1129 0 33.689 0C52.2652 0 67.3781 15.1129 67.3781 33.689C67.3781 52.2652 52.2652 67.3781 33.689 67.3781ZM33.6896 7.01752C18.9842 7.01752 7.01758 18.9841 7.01758 33.6896C7.01758 48.395 18.9842 60.3616 33.6896 60.3616C48.3951 60.3616 60.3617 48.395 60.3617 33.6896C60.3617 18.9841 48.3951 7.01752 33.6896 7.01752Z" transform="translate(37.73 38.5401)" fill="white"/>
<path fill-rule="evenodd" clip-rule="evenodd" d="M81.4875 142.829H61.342L55.5284 125.4C51.6842 124.272 47.9795 122.737 44.4673 120.82L28.0415 129.033L13.7925 114.788L22.0092 98.3584C20.0927 94.8537 18.561 91.149 17.4293 87.2972L0 81.4875V61.342L17.4293 55.5322C18.561 51.6804 20.0927 47.9757 22.0092 44.471L13.7925 28.0415L28.0415 13.7925L44.4673 22.0092C47.9795 20.0927 51.6842 18.5573 55.5284 17.4293L61.342 0H81.4875L87.301 17.4293C91.1415 18.5573 94.8499 20.0927 98.3622 22.0092L114.788 13.7925L129.037 28.0415L120.82 44.471C122.737 47.9757 124.268 51.6804 125.4 55.5322L142.829 61.342V81.4875L125.4 87.2972C124.268 91.149 122.737 94.8537 120.82 98.3584L129.037 114.788L114.788 129.033L98.3622 120.82C94.8499 122.737 91.1415 124.272 87.301 125.4L81.4875 142.829ZM66.3978 135.813H76.4328L81.8427 119.591L83.6912 119.116C88.1844 117.961 92.4851 116.184 96.4689 113.827L98.1138 112.853L113.404 120.5L120.5 113.404L112.849 98.1138L113.827 96.4652C116.177 92.4927 117.957 88.1957 119.119 83.6875L119.591 81.8389L135.813 76.4328V66.3978L119.591 60.9917L119.119 59.1432C117.957 54.6349 116.177 50.338 113.827 46.3655L112.849 44.7169L120.5 29.4266L113.404 22.3304L98.1138 29.9774L96.4689 29.0041C92.4851 26.6462 88.1844 24.8694 83.6912 23.715L81.8427 23.2396L76.4328 7.01758H66.3978L60.9879 23.2396L59.1394 23.715C54.6463 24.8694 50.3455 26.6462 46.3617 29.0041L44.7169 29.9774L29.4266 22.3304L22.3304 29.4266L29.9812 44.7169L29.0041 46.3655C26.6538 50.338 24.8731 54.6349 23.7112 59.1432L23.2358 60.9917L7.01758 66.3978V76.4328L23.2358 81.8389L23.7112 83.6875C24.8731 88.1957 26.6538 92.4927 29.0041 96.4652L29.9812 98.1138L22.3304 113.404L29.4266 120.5L44.7169 112.853L46.3617 113.827C50.3455 116.184 54.6463 117.961 59.1394 119.116L60.9879 119.591L66.3978 135.813Z" transform="translate(0.00427246 0.81427)" fill="white"/>
</svg>
