<svg width="195" height="51" viewBox="0 0 195 51" fill="none" xmlns="http://www.w3.org/2000/svg">
<g filter="url(#filter0_d)">
<path d="M0 24.1231V36.8558C0 38.8863 1.975 40.3304 3.90989 39.7145L19.7988 34.6572C22.689 33.7373 22.5444 29.5993 19.597 28.8833L0 24.1231ZM0 24.1231V11.5854C0 9.73056 1.66632 8.32017 3.49566 8.62662L18.8571 11.2C21.8913 11.7083 22.2856 15.9098 19.3989 16.9737L0 24.1231ZM32 39.9538L38.3575 10.0001C38.9308 7.29921 42.54 6.74145 43.9019 9.14332L60.8903 39.1061C62.4103 41.7869 66.5 40.7081 66.5 37.6264V11.2967C66.5 8.2203 70.5784 7.13722 72.1047 9.80828L88.8953 39.1917C90.4216 41.8628 94.5 40.7797 94.5 37.7033V12.0462C94.5 10.3893 95.8431 9.04615 97.5 9.04615H100.5M100.5 9.04615V37.202C100.5 39.6776 103.329 41.0878 105.306 39.5976L122.408 26.7055C124.117 25.4171 123.966 22.8046 122.119 21.722L100.5 9.04615ZM150 8.79487H166.5M183 8.79487H166.5M166.5 8.79487V39.9538" transform="translate(6)" stroke="#F2F2F2" stroke-width="3" stroke-linecap="round"/>
<path d="M0 0V31.159" transform="translate(151 8.79492)" stroke="#F2F2F2" stroke-width="3" stroke-linecap="round"/>
</g>
<defs>
<filter id="filter0_d" x="0.5" y="6.12109" width="194" height="44.0898" filterUnits="userSpaceOnUse" color-interpolation-filters="sRGB">
<feFlood flood-opacity="0" result="BackgroundImageFix"/>
<feColorMatrix in="SourceAlpha" type="matrix" values="0 0 0 0 0 0 0 0 0 0 0 0 0 0 0 0 0 0 255 0"/>
<feOffset dy="4"/>
<feGaussianBlur stdDeviation="2"/>
<feColorMatrix type="matrix" values="0 0 0 0 0 0 0 0 0 0 0 0 0 0 0 0 0 0 0.25 0"/>
<feBlend mode="normal" in2="BackgroundImageFix" result="effect1_dropShadow"/>
<feBlend mode="normal" in="SourceGraphic" in2="effect1_dropShadow" result="shape"/>
</filter>
</defs>
</svg>
